{"title":"Death Fighter 2017 Movies DVDRip XviD AAC New +Sample ~ ☻rDX☻","magnet":"magnet:?xt=urn:btih:44787aea1f66e23da259fc067732f345bbe78fc0&dn=Death+Fighter+2017+Movies+DVDRip+XviD+AAC+New+%2BSample+%7E+%E2%98%BBrDX%E2%98%BB&tr=udp%3A%2F%2Ftracker.leechers-paradise.org%3A6969&tr=udp%3A%2F%2Fzer0day.ch%3A1337&tr=udp%3A%2F%2Fopen.demonii.com%3A1337&tr=udp%3A%2F%2Ftracker.coppersurfer.tk%3A6969&tr=udp%3A%2F%2Fexodus.desync.com%3A6969","uploader":"basicssom","categoryP":"video","categoryS":"movies","size":"739454677","seeders":"1","leechers":"158","description":"----------------------------------------------------------------\r\nDeath Fighter 2017 Movies DVDRip XviD AAC New Source with Sample &#x263B;rDX&#x263B;\r\n\r\nSCREEN SHOTS &amp; POSTER:\r\n   <a href=\"\nhttp://postimage.co.nr/2017/7/1/revenue/index.html\" rel=\"nofollow\" target=\"_NEW\">\nhttp://postimage.co.nr/2017/7/1/revenue/index.html</a>  <a href=\"\nhttp://postimage.co.nr/2017/7/1/revenue/1.html\" rel=\"nofollow\" target=\"_NEW\">\nhttp://postimage.co.nr/2017/7/1/revenue/1.html</a>   <a href=\"\nhttp://postimage.co.nr/2017/7/1/revenue/2.html\" rel=\"nofollow\" target=\"_NEW\">\nhttp://postimage.co.nr/2017/7/1/revenue/2.html</a>   <a href=\"\nhttp://postimage.co.nr/2017/7/1/revenue/3.html\" rel=\"nofollow\" target=\"_NEW\">\nhttp://postimage.co.nr/2017/7/1/revenue/3.html</a>   <a href=\"\nhttp://postimage.co.nr/2017/7/1/revenue/4.html\" rel=\"nofollow\" target=\"_NEW\">\nhttp://postimage.co.nr/2017/7/1/revenue/4.html</a>   <a href=\"\nhttp://postimage.co.nr/2017/7/1/revenue/5.html\" rel=\"nofollow\" target=\"_NEW\">\nhttp://postimage.co.nr/2017/7/1/revenue/5.html</a>   <a href=\"\nhttp://postimage.co.nr/2017/7/1/revenue/6.html\" rel=\"nofollow\" target=\"_NEW\">\nhttp://postimage.co.nr/2017/7/1/revenue/6.html</a>   <a href=\"\nhttp://postimage.co.nr/2017/7/1/revenue/7.html\" rel=\"nofollow\" target=\"_NEW\">\nhttp://postimage.co.nr/2017/7/1/revenue/7.html</a>   <a href=\"\nhttp://postimage.co.nr/2017/7/1/revenue/8.html\" rel=\"nofollow\" target=\"_NEW\">\nhttp://postimage.co.nr/2017/7/1/revenue/8.html</a>   <a href=\"\nhttp://postimage.co.nr/2017/7/1/revenue/9.html\" rel=\"nofollow\" target=\"_NEW\">\nhttp://postimage.co.nr/2017/7/1/revenue/9.html</a>   <a href=\"\nhttp://postimage.co.nr/2017/7/1/revenue/10.html\" rel=\"nofollow\" target=\"_NEW\">\nhttp://postimage.co.nr/2017/7/1/revenue/10.html</a>\r\n\r\nFile size                                : 698 MiB\r\nDuration                                 : 1 h 28 min\r\nOverall bit rate mode                    : Constant\r\nOverall bit rate                         : 1 108 kb/s\r\nMovie name                               : Death Fighter 2017 Movies DVDRip XviD AAC New Source &#x263B;rDX&#x263B;\r\n\r\nVideo\r\nID                                       : 2\r\nFormat                                   : AVC\r\nFormat/Info                              : Advanced Video Codec\r\nFormat profile                           : <a class=\"__cf_email__\" href=\"/cdn-cgi/l/email-protection\" data-cfemail=\"6a270b03042a2659\">[email&#xA0;protected]</a><script data-cfhash=\"f9e31\" type=\"text/javascript\">/* <![CDATA[ */!function(t,e,r,n,c,a,p){try{t=document.currentScript||function(){for(t=document.getElementsByTagName('script'),e=t.length;e--;)if(t[e].getAttribute('data-cfhash'))return t[e]}();if(t&&(c=t.previousSibling)){p=t.parentNode;if(a=c.getAttribute('data-cfemail')){for(e='',r='0x'+a.substr(0,2)|0,n=2;a.length-n;n+=2)e+='%'+('0'+('0x'+a.substr(n,2)^r).toString(16)).slice(-2);p.replaceChild(document.createTextNode(decodeURIComponent(e)),c)}p.removeChild(t)}}catch(u){}}()/* ]]> */</script>\r\nFormat settings, CABAC                   : Yes\r\nFormat settings, ReFrames                : 2 frames\r\nFormat settings, GOP                     : M=1, N=12\r\nCodec ID                                 : V_MPEG4/ISO/AVC\r\nDuration                                 : 1 h 28 min\r\nBit rate mode                            : Constant\r\nBit rate                                 : 661 kb/s\r\nWidth                                    : 720 pixels\r\nHeight                                   : 400 pixels\r\nDisplay aspect ratio                     : 16:9\r\nFrame rate mode                          : Constant\r\nFrame rate                               : 23.976 (24000/1001) FPS\r\nColor space                              : YUV\r\nChroma subsampling                       : 4:2:0\r\nBit depth                                : 8 bits\r\nScan type                                : Progressive\r\nBits/(Pixel*Frame)                       : 0.096\r\nStream size                              : 402 MiB (58%)\r\nTitle                                    : &#x263B;rDX&#x263B;\r\nDefault                                  : Yes\r\nForced                                   : No\r\n\r\nAudio\r\nID                                       : 1\r\nFormat                                   : AC-3\r\nFormat/Info                              : Audio Coding 3\r\nMode extension                           : CM (complete main)\r\nFormat settings, Endianness              : Big\r\nCodec ID                                 : A_AC3\r\nDuration                                 : 1 h 28 min\r\nBit rate mode                            : Constant\r\nBit rate                                 : 448 kb/s\r\nChannel(s)                               : 6 channels\r\nChannel positions                        : Front: L C R, Side: L R, LFE\r\nSampling rate                            : 48.0 kHz\r\nFrame rate                               : 31.250 FPS (1536 spf)\r\nBit depth                                : 16 bits\r\nCompression mode                         : Lossy\r\nStream size                              : 282 MiB (40%)\r\nTitle                                    : &#x263B;rDX&#x263B;\r\nDefault                                  : Yes\r\nForced                                   : No","last_updated":"2017-07-21T12:03:18.240Z","parsed":{"xt":"urn:btih:44787aea1f66e23da259fc067732f345bbe78fc0","dn":"Death Fighter 2017 Movies DVDRip XviD AAC New  Sample ~ ☻rDX☻","tr":["udp://exodus.desync.com:6969","udp://open.demonii.com:1337","udp://tracker.coppersurfer.tk:6969","udp://tracker.leechers-paradise.org:6969","udp://zer0day.ch:1337"],"infoHash":"44787aea1f66e23da259fc067732f345bbe78fc0","infoHashBuffer":{"type":"Buffer","data":[68,120,122,234,31,102,226,61,162,89,252,6,119,50,243,69,187,231,143,192]},"name":"Death Fighter 2017 Movies DVDRip XviD AAC New  Sample ~ ☻rDX☻","announce":["udp://exodus.desync.com:6969","udp://open.demonii.com:1337","udp://tracker.coppersurfer.tk:6969","udp://tracker.leechers-paradise.org:6969","udp://zer0day.ch:1337"],"urlList":[]}}